<svg width="138" height="105" viewBox="0 0 138 105" fill="none" xmlns="http://www.w3.org/2000/svg">
<path d="M56.0532 64.3184C56.4487 63.6152 56.7344 62.9268 56.9102 62.2529C57.0859 61.5645 57.2251 60.8979 57.3276 60.2534C57.3862 59.8726 57.4448 59.4917 57.5034 59.1108C59.2173 51.0542 61.2095 43.0781 63.48 35.1826C65.7505 27.2871 68.4165 19.5015 71.478 11.8257C71.5806 11.6353 71.6758 11.4229 71.7637 11.1885C71.8955 10.8076 72.0566 10.4268 72.2471 10.0459C72.6426 9.19629 73.3091 8.75684 74.2466 8.72754C75.4331 8.72754 75.8506 9.32813 75.499 10.5293C69.7568 25.8662 65.1792 41.54 61.7661 57.5508C60.5356 63.4834 59.4077 69.4307 58.3823 75.3926C57.9282 77.9121 57.4595 80.4243 56.9761 82.9292C56.7563 84.2476 56.5293 85.5879 56.2949 86.9502C56.1338 87.8145 55.9727 88.686 55.8115 89.5649C55.7529 89.9165 55.6724 90.2681 55.5698 90.6196C55.3208 91.3228 54.8447 91.7769 54.1416 91.9819C53.4531 92.2017 52.7866 92.0991 52.1421 91.6743C51.7319 91.396 51.5049 90.9932 51.4609 90.4658C51.4316 89.7334 51.4316 88.9937 51.4609 88.2466C51.915 77.5825 52.1421 66.9185 52.1421 56.2544C52.1421 55.1265 52.1421 53.9326 52.1421 52.6729C52.1714 49.3477 52.1641 45.7808 52.1201 41.9722C52.0762 38.1489 51.9004 34.2964 51.5928 30.4146C51.2852 26.5327 50.7578 22.834 50.0107 19.3184C49.2783 15.8027 48.231 12.7266 46.8687 10.0898C46.2241 8.83008 45.4551 7.66553 44.5615 6.59619C42.7158 4.54541 40.394 3.62988 37.5962 3.84961C34.7983 4.06934 31.8027 5.146 28.6094 7.07959C25.416 9.01318 22.2886 11.5474 19.2271 14.6821C16.1655 17.8022 13.4556 21.252 11.0972 25.0312C8.75342 28.7959 7.0249 32.6191 5.91162 36.501C4.79834 40.3828 4.57861 44.0596 5.25244 47.5312C5.92627 50.9883 7.7793 53.9766 10.8115 56.4961C12.7158 58.0781 14.7593 59.3599 16.9419 60.3413C19.1392 61.3228 21.4976 61.8794 24.0171 62.0112C24.5005 62.0405 24.9473 62.165 25.3574 62.3848C25.46 62.458 25.5479 62.5605 25.6211 62.6924C25.709 62.8096 25.7529 62.9194 25.7529 63.022C25.7529 63.1538 25.709 63.2783 25.6211 63.3955C25.5479 63.5273 25.46 63.6299 25.3574 63.7031C25.0352 63.8936 24.6836 64.0034 24.3027 64.0327C22.9111 64.1938 21.5122 64.1279 20.106 63.835C16.3267 63 12.8403 61.4692 9.64697 59.2427C6.10205 56.7378 3.71436 53.7715 2.48389 50.3438C1.23877 46.9014 0.923828 43.2393 1.53906 39.3574C2.1543 35.4756 3.46533 31.6011 5.47217 27.7339C7.49365 23.8667 9.96191 20.2192 12.877 16.7915C15.792 13.3491 18.9487 10.3755 22.3472 7.87061C25.7456 5.35107 29.1294 3.5127 32.4985 2.35547C35.8677 1.19824 39.0098 0.941895 41.9248 1.58643C44.8398 2.23096 47.2788 4.01807 49.2417 6.94775C50.6626 9.13037 51.7759 11.4814 52.5815 14.001C53.8413 18.0293 54.7275 22.4604 55.2402 27.2944C55.7529 32.1284 56.0459 37.0723 56.1191 42.126C56.207 47.165 56.207 52.0503 56.1191 56.7817C56.0752 59.4185 56.0532 61.9307 56.0532 64.3184ZM84.6836 51.9917C84.874 52.0942 84.9619 52.27 84.9473 52.519C84.9326 52.7534 84.8594 52.9658 84.7275 53.1562C83.7314 54.6357 82.6621 55.9468 81.5195 57.0894C80.377 58.2319 79.1172 59.0889 77.7402 59.6602C76.3779 60.2168 74.8105 60.3706 73.0381 60.1216C71.8516 59.9312 70.958 59.5283 70.3574 58.9131C69.7568 58.2979 69.3101 57.4263 69.0171 56.2983C68.5337 54.5259 68.4238 52.7021 68.6875 50.8271C68.9072 49.7432 69.5811 49.1792 70.709 49.1353C71.7197 49.1353 72.269 49.5894 72.3569 50.4976C72.3862 51.2446 72.3862 51.9844 72.3569 52.7168C72.3569 52.8193 72.3569 52.9146 72.3569 53.0024C72.2983 55.0093 72.6206 56.3862 73.3237 57.1333C74.0415 57.8657 74.9717 58.0562 76.1143 57.7046C77.2568 57.353 78.4727 56.5474 79.7617 55.2876C79.9229 55.1265 80.1206 54.9067 80.355 54.6284C80.604 54.3501 80.875 54.0718 81.168 53.7935C81.5781 53.3687 81.915 53.0098 82.1787 52.7168C82.9844 51.9111 83.8193 51.6694 84.6836 51.9917ZM70.4233 45.9053C69.5298 45.8467 69.0171 45.3633 68.8853 44.4551C68.7827 43.752 68.8926 43.0781 69.2148 42.4336C69.5078 41.877 69.9839 41.4961 70.6431 41.291C71.3022 41.0859 71.9248 41.1445 72.5107 41.4668C72.7305 41.584 72.8843 41.7524 72.9722 41.9722C73.0747 42.1772 73.1113 42.3457 73.082 42.4775C73.0527 44.792 72.1665 45.9346 70.4233 45.9053ZM101.712 52.6289C102.254 52.0723 102.73 51.8525 103.141 51.9697C103.565 52.0869 103.829 52.3945 103.932 52.8926C104.034 53.3906 103.888 53.9473 103.492 54.5625C102.687 55.749 101.551 57.0308 100.086 58.4077C98.6216 59.77 97.0396 60.9639 95.3403 61.9893C93.6558 63 92.0591 63.5493 90.5503 63.6372C87.4888 63.7983 86.0532 62.3335 86.2437 59.2427C86.2729 58.8325 86.3535 58.2832 86.4854 57.5947C86.6172 56.9209 86.7197 56.269 86.793 55.6392C86.8809 55.0093 86.8442 54.5845 86.6831 54.3647C86.478 54.1743 86.2437 54.0791 85.98 54.0791C85.731 54.0791 85.46 54.1084 85.167 54.167C84.8447 54.2402 84.5444 54.2549 84.2661 54.2109C82.772 54.0498 81.9956 53.2808 81.937 51.9038C81.9077 49.9995 82.2593 48.1758 82.9917 46.4326C83.2261 45.8906 83.6655 45.5317 84.3101 45.356C84.9546 45.1802 85.5479 45.2534 86.0898 45.5757C86.4414 45.7954 86.6025 46.0957 86.5732 46.4766C86.5146 47.0039 86.4194 47.5239 86.2876 48.0366C86.229 48.2563 86.1777 48.4834 86.1338 48.7178C85.8555 50.0654 85.8555 50.7686 86.1338 50.8271C86.4268 50.8711 87.0566 50.5049 88.0234 49.7285C88.7412 49.2158 89.5322 49.0034 90.3965 49.0913C91.5537 49.1938 92.0225 49.8384 91.8027 51.0249C91.6123 51.8306 91.4146 52.6509 91.2095 53.4858C90.77 55.1997 90.4331 56.9282 90.1987 58.6714C90.1108 59.8579 90.3232 60.5537 90.8359 60.7588C91.3486 60.9492 92.0298 60.8247 92.8794 60.3853C93.7437 59.9458 94.6445 59.3599 95.582 58.6274C96.5342 57.8804 97.3691 57.1553 98.0869 56.4521C98.8193 55.7344 99.3174 55.2144 99.5811 54.8921C99.7129 54.731 99.9106 54.5112 100.174 54.2329C100.453 53.9399 100.738 53.647 101.031 53.354C101.354 53.0317 101.581 52.79 101.712 52.6289ZM121.29 51.9478C121.451 51.9771 121.561 52.0283 121.62 52.1016C121.678 52.1602 121.744 52.2847 121.817 52.4751C121.876 52.6655 121.81 52.8926 121.62 53.1562C121.429 53.4199 121.253 53.6323 121.092 53.7935C119.891 54.9214 118.485 55.5952 116.874 55.8149C115.951 55.9468 115.028 55.9834 114.105 55.9248C113.182 55.8516 112.274 55.6245 111.38 55.2437C110.736 54.9214 110.135 55.0166 109.579 55.5293C108.421 56.584 107.213 57.5947 105.953 58.5615C105.309 59.0449 104.627 59.4478 103.91 59.77C103.207 60.0923 102.438 60.2754 101.603 60.3193C99.1562 60.2754 98.1895 59.0815 98.7021 56.7378C98.7314 56.6353 98.7681 56.5547 98.812 56.4961C99.5151 54.5918 100.445 52.8779 101.603 51.3545C102.76 49.8164 104.225 48.5347 105.997 47.5093C107.169 46.8208 108.429 46.5571 109.776 46.7183C110.128 46.7915 110.465 46.9233 110.787 47.1138C111.183 47.3042 111.344 47.6118 111.271 48.0366C111.241 48.1685 111.175 48.2856 111.073 48.3882C110.985 48.4761 110.89 48.564 110.787 48.6519C110.729 48.7251 110.648 48.7764 110.545 48.8057C110.458 48.835 110.362 48.8496 110.26 48.8496C109.293 48.8789 108.458 49.1646 107.755 49.7065C107.066 50.2339 106.437 50.8345 105.865 51.5083C105.221 52.2261 104.62 53.0171 104.063 53.8813C103.521 54.7456 103.075 55.7783 102.723 56.9795C104.012 56.2324 105.023 55.4927 105.755 54.7603C105.917 54.5991 106.078 54.4526 106.239 54.3208C106.371 54.189 106.502 54.0718 106.634 53.9692C107.279 53.3687 107.953 52.8413 108.656 52.3872C109.461 51.9331 110.26 51.7061 111.051 51.7061C111.842 51.7061 112.611 52.0283 113.358 52.6729C114.383 53.5811 115.379 53.9399 116.346 53.7495C117.313 53.5444 118.214 53.2002 119.049 52.7168C119.898 52.2041 120.646 51.9478 121.29 51.9478ZM136.715 52.1455C137.418 52.1455 137.799 52.3726 137.857 52.8267C137.931 53.2661 137.711 53.7642 137.198 54.3208C132.657 58.8911 128.226 63.5786 123.905 68.3833C123.363 68.9692 123.106 69.665 123.136 70.4707C123.136 73.1074 122.901 76.2056 122.433 79.7651C121.964 83.3247 121.327 86.8257 120.521 90.2681C119.715 93.7251 118.778 96.5962 117.708 98.8813C117.43 99.5259 117.123 100.156 116.786 100.771C116.434 101.386 116.002 101.936 115.489 102.419C113.849 103.898 112.354 104.492 111.007 104.199C109.645 103.906 108.531 103.071 107.667 101.694C106.627 99.9507 106.129 97.9805 106.173 95.7832C106.202 93.6006 106.62 91.3081 107.425 88.9058C108.231 86.5034 109.249 84.145 110.479 81.8306C111.695 79.5308 112.962 77.3994 114.281 75.4365C115.599 73.4736 116.793 71.8477 117.862 70.5586C118.507 69.6943 118.99 68.3613 119.312 66.5596C119.635 64.7725 119.833 62.8169 119.906 60.6929C119.994 58.5688 119.994 56.5693 119.906 54.6943C119.833 52.8047 119.745 51.3252 119.642 50.2559C119.583 49.1865 120.038 48.5933 121.004 48.4761C122.323 48.3149 123.099 48.7764 123.333 49.8604C123.612 51.5156 123.766 53.2295 123.795 55.002C123.839 56.7744 123.846 58.5469 123.817 60.3193C123.773 61.374 123.751 62.3994 123.751 63.3955C126.168 61.0225 128.702 58.708 131.354 56.4521C131.705 56.1592 132.057 55.8516 132.408 55.5293C132.643 55.3389 132.921 55.0972 133.243 54.8042C133.844 54.189 134.481 53.603 135.155 53.0464C135.843 52.4751 136.363 52.1748 136.715 52.1455ZM114.083 97.9146C115.021 95.8931 115.782 93.6006 116.368 91.0371C116.939 88.4736 117.416 85.8662 117.796 83.2148C118.163 80.5781 118.478 78.0806 118.741 75.7222C118.771 75.312 118.8 74.9092 118.829 74.5137C117.965 75.2607 116.983 76.6523 115.885 78.6885C114.786 80.7393 113.746 83.083 112.765 85.7197C111.783 88.3711 111.058 90.9272 110.589 93.3882C110.121 95.8638 110.077 97.9072 110.458 99.5186C110.853 100.705 111.278 101.247 111.732 101.145C112.171 101.057 112.611 100.646 113.05 99.9141C113.49 99.1963 113.834 98.5298 114.083 97.9146ZM119.225 42.917C119.181 42.873 119.159 42.8364 119.159 42.8071C118.836 41.7817 118.595 40.7344 118.434 39.665C118.346 38.9619 118.536 38.4639 119.005 38.1709C119.474 37.8779 120.089 37.8633 120.851 38.127C121.861 38.4492 122.477 39.0425 122.696 39.9067C122.96 41.0054 123.026 42.1187 122.894 43.2466C122.733 44.3159 122.008 44.7041 120.719 44.4111C119.942 44.2207 119.444 43.7227 119.225 42.917Z" fill="#F5BA22"/>
</svg>
